<svg xmlns="http://www.w3.org/2000/svg" width="64" height="64" viewBox="8 8 48 48">
  <defs>
    <linearGradient id="resolve-top" x1="32" y1="13" x2="32" y2="35" gradientUnits="userSpaceOnUse">
      <stop stop-color="#94e2d5"/>
      <stop offset=".52" stop-color="#74c7ec"/>
      <stop offset="1" stop-color="#89b4fa"/>
    </linearGradient>
    <linearGradient id="resolve-left" x1="13" y1="48" x2="31" y2="31" gradientUnits="userSpaceOnUse">
      <stop stop-color="#f9e2af"/>
      <stop offset=".55" stop-color="#a6e3a1"/>
      <stop offset="1" stop-color="#94e2d5"/>
    </linearGradient>
    <linearGradient id="resolve-right" x1="51" y1="48" x2="33" y2="31" gradientUnits="userSpaceOnUse">
      <stop stop-color="#f38ba8"/>
      <stop offset=".55" stop-color="#fab387"/>
      <stop offset="1" stop-color="#f5c2e7"/>
    </linearGradient>
  </defs>
  <path d="M32 13c-7.4 0-11.5 5.2-9.8 11.2C23.4 28.5 28.5 32.8 32 35c3.5-2.2 8.6-6.5 9.8-10.8C43.5 18.2 39.4 13 32 13Z"
        fill="url(#resolve-top)" stroke="#b4befe" stroke-width="1.2" stroke-linejoin="round"/>
  <path d="M30.4 31.9c-5.9-1.7-12.5-1.8-16.5 2.6-4.3 4.8-2.1 12.4 3.5 14.8 5.8 2.5 11.2-2.9 13-17.4Z"
        fill="url(#resolve-left)" stroke="#f9e2af" stroke-width="1.2" stroke-linejoin="round"/>
  <path d="M33.6 31.9c5.9-1.7 12.5-1.8 16.5 2.6 4.3 4.8 2.1 12.4-3.5 14.8-5.8 2.5-11.2-2.9-13-17.4Z"
        fill="url(#resolve-right)" stroke="#f38ba8" stroke-width="1.2" stroke-linejoin="round"/>

  <path d="M27 17c3-2.2 7.5-2.2 10.3.2" fill="none" stroke="#cdd6f4" stroke-width="2" stroke-linecap="round" opacity=".35"/>
  <path d="M15.8 38.2c1.5-3 5.1-4.6 8.4-4.2" fill="none" stroke="#cdd6f4" stroke-width="2" stroke-linecap="round" opacity=".28"/>
  <path d="M48.2 38.2c-1.5-3-5.1-4.6-8.4-4.2" fill="none" stroke="#cdd6f4" stroke-width="2" stroke-linecap="round" opacity=".28"/>
  <circle cx="32" cy="33" r="2.8" fill="#1e1e2e" opacity=".8"/>
</svg>
